<?xml version="1.0" encoding="UTF-8"?>
<svg id="uuid-d0f595c5-4ae1-4bf6-a299-f0195c485964" data-name="Layer 1" xmlns="http://www.w3.org/2000/svg" xmlns:xlink="http://www.w3.org/1999/xlink" viewBox="0 0 468 222.5">
  <defs>
    <style>
      .uuid-c693c1e0-c67b-4f96-bc0e-78ada8a928b6 {
        fill: #00609c;
      }

      .uuid-2a0d38e3-ffaa-4f17-b9da-52f8740936a2 {
        letter-spacing: -.00499em;
      }

      .uuid-628c95e2-49eb-455a-810d-d1093e1c574c {
        fill: url(#uuid-a822b33d-ac95-4226-a18e-74d1f1880af1);
      }

      .uuid-cb0e70a7-e8cb-4c1c-8b24-fc56d398f042 {
        fill: url(#uuid-f7755ed6-26d9-4020-8bb0-09be05c6fc4d);
      }

      .uuid-8f328b4e-1d6d-42b4-b07c-e02aeca550cf {
        fill: #141414;
        font-family: FiraSans-Italic, 'Fira Sans';
        font-size: 73.16354px;
        font-style: italic;
      }

      .uuid-535eedec-b817-47c1-85a4-328bf218a0d2 {
        letter-spacing: -.002em;
      }

      .uuid-7b0fe430-fb49-409f-951c-6f94c32b3745 {
        letter-spacing: -.01999em;
      }
    </style>
    <linearGradient id="uuid-f7755ed6-26d9-4020-8bb0-09be05c6fc4d" x1="81.29182" y1="-2677.36765" x2="99.30299" y2="-2677.36765" gradientTransform="translate(0 -2593.8999) scale(1 -1)" gradientUnits="userSpaceOnUse">
      <stop offset="0" stop-color="#00a7e2"/>
      <stop offset=".3" stop-color="#00a4df"/>
      <stop offset=".5" stop-color="#009bd7"/>
      <stop offset=".7" stop-color="#008dc8"/>
      <stop offset=".9" stop-color="#0078b4"/>
      <stop offset="1" stop-color="#00609c"/>
    </linearGradient>
    <linearGradient id="uuid-a822b33d-ac95-4226-a18e-74d1f1880af1" x1="76.55357" y1="-2698.04855" x2="51.29653" y2="-2698.04855" xlink:href="#uuid-f7755ed6-26d9-4020-8bb0-09be05c6fc4d"/>
  </defs>
  <g>
    <path class="uuid-c693c1e0-c67b-4f96-bc0e-78ada8a928b6" d="M72.83926,127.15l7.65992,2.69132-4.76157,12.83555c-3.10537,8.07397-10.97232,12.21447-18.63224,12.42149-.41405-.8281-3.10537-8.281-3.10537-8.281h3.10537c4.9686,0,8.48802-.41405,10.55827-6.21075l4.9686-13.2496h0l.20702-.20702Z"/>
    <polygon class="uuid-c693c1e0-c67b-4f96-bc0e-78ada8a928b6" points="59.3705 74.97973 94.35771 74.97973 93.25657 67.49199 89.80316 66.90575 63.92505 66.90575 61.0267 67.94088 59.3705 74.97973"/>
    <path class="uuid-cb0e70a7-e8cb-4c1c-8b24-fc56d398f042" d="M86.46744,91.33469c-1.03512,2.89835-1.86322,6.41777-6.21075,8.69505l11.80042-4.34752c1.44918-.62107,2.27727-2.69132,2.89835-4.1405,2.73762-7.37052,2.72452-7.33549,4.76157-12.83554,2.27727-6.21075-2.69132-11.80042-9.31612-11.80042h-1.24215c1.86323,0,5.7967,1.03512,3.93348,6.21075,0,0-6.6248,18.21819-6.62481,18.21819Z"/>
    <path class="uuid-628c95e2-49eb-455a-810d-d1093e1c574c" d="M74.06927,131.2905c1.03512,2.69132,2.97326,5.96054,2.14516,10.10104l4.47963-11.96426c.62107-1.44918.62107-2.07025,0-3.72645l-19.25332-52.3773c-1.86322-5.38265,2.07025-6.41777,4.1405-6.41777h-1.6562c-6.6248,0-11.38637,5.7967-9.10909,12.00745l19.25332,52.3773h0Z"/>
  </g>
  <text class="uuid-8f328b4e-1d6d-42b4-b07c-e02aeca550cf" transform="translate(136.8584 128.97656)"><tspan x="0" y="0">ga</tspan><tspan class="uuid-7b0fe430-fb49-409f-951c-6f94c32b3745" x="84.06299" y="0">t</tspan><tspan class="uuid-535eedec-b817-47c1-85a4-328bf218a0d2" x="108.57324" y="0">e</tspan><tspan x="146.25195" y="0">w</tspan><tspan class="uuid-2a0d38e3-ffaa-4f17-b9da-52f8740936a2" x="198.27148" y="0">a</tspan><tspan x="239.53516" y="0">y</tspan></text>
</svg>